<svg version="1.1" id="Layer_1" xmlns="http://www.w3.org/2000/svg" xmlns:xlink="http://www.w3.org/1999/xlink" x="0px" y="0px"
	 width="100%" viewBox="0 0 512 512" enable-background="new 0 0 512 512" xml:space="preserve">
<path fill="#404543" opacity="1.000000" stroke="none" 
	d="
M304.646667,1.261430 
	C322.354218,1.000000 339.708466,1.000000 357.531342,1.000000 
	C375.562897,4.831248 389.743256,15.042664 404.010254,25.187616 
	C430.753418,44.204113 458.020569,62.480927 484.501129,81.866203 
	C494.963989,89.525642 503.035278,99.081192 505.639313,112.342323 
	C506.221924,115.309280 506.474243,118.269249 506.474274,121.275009 
	C506.475128,227.066818 506.511108,332.858673 506.448578,438.650452 
	C506.430634,468.973602 485.834106,491.858673 454.646240,496.311188 
	C440.465668,498.335663 426.115845,498.426056 411.845795,499.419098 
	C397.079529,500.446655 382.294952,501.229889 367.519958,502.142456 
	C354.900848,502.921844 342.280548,503.713470 329.657471,504.436859 
	C314.545013,505.302856 299.438507,506.260132 284.329254,507.158295 
	C270.879791,507.957825 257.416962,508.607178 243.973831,509.510803 
	C224.901001,510.792847 205.802002,511.502563 186.357574,512.737427 
	C165.645767,513.000000 145.291550,513.000000 124.468658,513.000000 
	C121.591141,511.344940 118.620667,511.413116 115.991318,510.369263 
	C105.672707,506.272797 96.997566,499.913757 90.170685,491.243103 
	C68.625282,463.878784 47.264973,436.368042 26.210409,408.624329 
	C17.974394,397.771667 11.855426,385.788147 8.869841,372.359833 
	C7.961455,368.274170 7.517776,364.165558 7.518946,359.969971 
	C7.545232,265.641174 7.520598,171.312363 7.551450,76.983551 
	C7.560564,49.118004 26.678173,25.810579 53.960468,20.204245 
	C66.412376,17.645458 79.118958,17.669315 91.712143,16.633173 
	C108.460899,15.255115 125.227837,14.039709 141.996674,12.912829 
	C157.771469,11.852749 173.531006,10.594832 189.302521,9.496325 
	C204.907166,8.409445 220.505615,7.214612 236.102432,6.007072 
	C247.550598,5.120729 259.026337,4.552604 270.458649,3.493750 
	C281.720245,2.450705 293.034698,2.499596 304.646667,1.261430 
z"/>
<path fill="#404543" opacity="1.000000" stroke="none" 
	d="
M186.468658,513.000000 
	C185.379547,510.558716 187.185516,511.060181 188.461685,511.010284 
	C197.379745,510.661591 206.314697,510.567017 215.213882,509.951782 
	C232.461136,508.759460 249.706100,507.660614 266.978912,506.835144 
	C277.479797,506.333313 287.993530,505.609772 298.493317,504.903473 
	C315.577606,503.754242 332.666626,502.804291 349.762817,501.878510 
	C360.433899,501.300598 371.100677,500.515350 381.774658,499.872559 
	C398.697266,498.853455 415.627747,497.930237 432.540283,496.822845 
	C443.361115,496.114319 454.345367,495.996216 464.919830,492.643188 
	C484.461548,486.446716 497.185394,473.660309 502.926117,454.027496 
	C504.194702,449.689148 505.010498,445.199219 505.010040,440.609558 
	C504.998718,333.448547 505.042755,226.287476 504.934326,119.126572 
	C504.923981,108.907051 500.884216,99.987892 493.930267,92.422173 
	C484.450958,82.108940 472.492920,74.998871 461.204834,67.033646 
	C436.928955,49.903816 412.701874,32.700706 388.218567,15.871279 
	C379.616333,9.958266 370.197083,5.312346 359.843079,3.051564 
	C358.783386,2.820179 357.972748,2.578995 357.703125,1.337833 
	C408.144592,1.000000 458.289276,1.042625 508.433502,0.911068 
	C512.057495,0.901560 513.107178,1.525757 513.104370,5.429857 
	C512.983154,173.189209 512.987366,340.948669 513.087097,508.708069 
	C513.089172,512.193726 512.521057,513.111389 508.795502,513.106750 
	C401.509552,512.974548 294.223419,513.000000 186.468658,513.000000 
z"/>
<path fill="#000000" opacity="1.000000" stroke="none" 
	d="
M304.531342,1.000000 
	C305.620697,3.438863 303.816803,2.920337 302.540771,2.993118 
	C290.710693,3.667848 278.857330,4.065099 267.055328,5.067755 
	C252.983826,6.263220 238.898102,7.151334 224.814880,8.133848 
	C216.316284,8.726753 207.783829,9.240570 199.322388,10.131677 
	C184.005585,11.744752 168.575836,11.787647 153.297562,13.898632 
	C148.282013,14.591622 143.148788,14.348878 138.048309,14.845749 
	C126.264702,15.993668 114.378227,16.053900 102.578163,17.072853 
	C89.171272,18.230558 75.703934,18.769009 62.343105,20.153454 
	C36.591660,22.821814 15.061832,38.590263 9.836327,67.790970 
	C9.338204,70.574532 9.018604,73.276939 9.017932,76.038300 
	C8.994813,170.982697 8.978132,265.927094 9.022767,360.871490 
	C9.028855,373.821991 13.475694,385.585419 20.061079,396.455872 
	C31.346321,415.084351 45.802063,431.390778 59.047462,448.582855 
	C69.830490,462.578796 80.265709,476.851349 91.337044,490.613586 
	C99.345154,500.568085 109.740288,507.474457 122.188889,510.926758 
	C123.219803,511.212677 124.032280,511.448578 124.295006,512.671753 
	C84.351814,513.000000 44.703457,512.951050 5.055758,513.089478 
	C1.755955,513.100952 0.896136,512.598083 0.898587,509.059113 
	C1.014883,341.137451 1.012509,173.215729 0.913408,5.294053 
	C0.911354,1.814547 1.470477,0.887539 5.202183,0.892595 
	C104.822212,1.027577 204.442474,1.000000 304.531342,1.000000 
z"/>
<path fill="#010101" opacity="1.000000" stroke="none" 
	d="
M103.541031,456.461487 
	C87.007294,435.130524 70.784531,414.010376 54.376488,393.035187 
	C43.981091,379.746277 38.674557,365.309723 38.771667,347.950897 
	C39.265751,259.630829 38.999729,171.306458 38.998932,82.983604 
	C38.998901,79.653282 39.115562,76.360611 39.776180,73.053047 
	C42.332882,60.252247 50.313423,52.237095 63.394318,51.024727 
	C84.947945,49.027092 106.554718,47.596676 128.143524,45.986420 
	C162.524475,43.422024 196.908554,40.899555 231.292252,38.371944 
	C264.180939,35.954239 297.082581,33.700840 329.955322,31.083691 
	C347.376923,29.696678 362.422913,34.522053 376.594482,44.834774 
	C405.639008,65.970558 435.234009,86.352219 464.695312,106.911163 
	C472.006531,112.013123 475.160248,118.411415 475.140198,127.543991 
	C474.918091,228.698166 475.000366,329.853027 475.000244,431.007690 
	C475.000244,432.340851 475.020721,433.674469 474.994812,435.007141 
	C474.634796,453.524353 465.725891,463.515533 447.251831,465.000458 
	C426.502869,466.668182 405.705597,467.743591 384.925385,469.011993 
	C343.194366,471.559357 301.462158,474.086823 259.727722,476.576843 
	C222.649307,478.789093 185.554474,480.747253 148.492645,483.205780 
	C132.084137,484.294189 119.155029,479.175323 110.147705,465.058380 
	C108.274704,462.122864 105.911110,459.500397 103.541031,456.461487 
z"/>
<path fill="#FDFDFD" opacity="1.000000" stroke="none" 
	d="
M129.164673,271.999908 
	C129.164673,237.511139 129.157791,203.522415 129.180939,169.533691 
	C129.182404,167.376755 129.244522,165.193115 129.574661,163.067917 
	C130.830643,154.983139 134.569489,151.425217 142.821121,150.896591 
	C164.425995,149.512543 186.039780,148.266754 207.651825,146.996231 
	C250.875748,144.455215 294.100464,141.927628 337.325592,139.407761 
	C368.083008,137.614700 398.838135,135.777161 429.601898,134.099747 
	C439.806946,133.543320 444.221405,137.742706 444.892090,148.002380 
	C444.989746,149.495956 444.929596,151.000351 444.929626,152.499741 
	C444.930878,238.471237 444.931549,324.442749 444.925659,410.414246 
	C444.925537,412.412506 444.976807,414.422760 444.788574,416.407013 
	C443.739349,427.466949 438.583862,432.356079 427.427948,432.992279 
	C367.737732,436.396149 308.046387,439.779968 248.358124,443.217712 
	C217.100754,445.018036 185.849487,446.924469 154.593597,448.751068 
	C151.770325,448.916046 148.923828,449.015747 146.104431,448.856537 
	C134.911087,448.224365 129.425018,442.635040 129.199402,431.445679 
	C129.031509,423.118500 129.164795,414.785217 129.164749,406.454651 
	C129.164581,361.803070 129.164673,317.151520 129.164673,271.999908 
z"/>
<path fill="#FDFDFD" opacity="1.000000" stroke="none" 
	d="
M358.198486,61.758636 
	C368.894470,67.967918 378.114624,75.642906 387.929382,82.466339 
	C394.888306,87.304352 401.735718,92.303207 408.608582,97.263977 
	C409.680542,98.037712 410.738342,98.892998 411.588623,99.892662 
	C412.293121,100.720970 413.326630,101.616653 412.735382,102.958572 
	C412.129883,104.332863 410.803162,104.026642 409.687805,104.101295 
	C401.546875,104.646095 393.406860,105.208717 385.262024,105.689293 
	C343.207733,108.170639 301.149628,110.587128 259.097748,113.108345 
	C223.361771,115.250908 187.635910,117.563438 151.898117,119.674286 
	C141.136597,120.309906 130.001785,121.842880 120.531761,114.877869 
	C109.822189,107.001205 99.487198,98.614899 88.999405,90.437286 
	C86.378258,88.393501 83.800552,86.294098 81.193825,84.231712 
	C79.478462,82.874542 77.578125,81.523636 78.091660,78.985291 
	C78.635963,76.294876 80.992065,75.273415 83.266129,74.958931 
	C89.025909,74.162407 94.826035,73.594223 100.627235,73.170296 
	C164.557755,68.498520 228.491318,63.868568 292.424652,59.235382 
	C305.875977,58.260578 319.320831,57.156349 332.785492,56.419510 
	C341.527802,55.941109 350.025543,57.340080 358.198486,61.758636 
z"/>
<path fill="#010101" opacity="1.000000" stroke="none" 
	d="
M312.458893,272.561646 
	C324.248474,290.497925 335.819305,308.145905 347.383728,325.784119 
	C349.214233,325.055756 348.471069,323.694427 348.472260,322.731232 
	C348.517731,285.231964 348.483917,247.732559 348.562531,210.233398 
	C348.568726,207.274261 348.127533,205.788162 344.635406,205.660843 
	C339.495850,205.473419 334.395966,204.276382 329.254547,204.035217 
	C325.442352,203.856430 324.800049,202.054916 325.296295,198.890701 
	C326.387451,191.932907 331.937195,186.511734 339.217712,186.037933 
	C358.833679,184.761337 378.466064,183.737762 398.085236,182.507156 
	C400.279785,182.369507 400.882202,183.012955 401.154297,185.126831 
	C402.222534,193.425034 399.392151,197.624039 391.235413,199.378983 
	C379.489105,201.906219 379.489105,201.906219 379.489105,214.252975 
	C379.489105,272.918610 379.435364,331.584381 379.606262,390.249512 
	C379.618042,394.295593 378.293915,396.218414 374.796722,397.675415 
	C368.036682,400.491882 361.322815,403.282227 354.003326,404.423492 
	C342.553833,406.208618 333.105316,403.319946 325.641968,393.973999 
	C315.116730,380.793854 306.879822,366.127167 297.767273,352.036713 
	C276.999359,319.923920 256.495209,287.640564 235.878235,255.430084 
	C235.441177,254.747269 234.936157,254.107925 234.468948,253.456833 
	C232.823578,254.285858 233.525940,255.606583 233.524918,256.604980 
	C233.483002,297.270905 233.532974,337.936951 233.406540,378.602539 
	C233.396332,381.884674 234.317245,383.297760 237.525803,383.898560 
	C244.060867,385.122253 250.491974,386.930084 257.045837,388.013672 
	C261.106476,388.684998 261.403931,390.420776 259.995972,393.675018 
	C257.457855,399.541626 252.864090,402.696686 246.822784,403.988190 
	C239.279251,405.600769 231.560776,405.121216 223.930954,405.690643 
	C209.812881,406.744354 195.645996,407.142212 181.526917,408.185211 
	C177.065430,408.514740 176.698273,406.373596 177.295914,403.194855 
	C178.188843,398.445526 180.603638,395.164459 185.700516,393.809082 
	C190.450623,392.545898 196.996140,392.857452 199.376114,389.151459 
	C201.586670,385.709259 199.993790,379.794342 199.994888,374.968109 
	C200.006577,323.802368 199.951080,272.636444 200.103729,221.471146 
	C200.115326,217.580505 198.969009,216.268158 195.258881,216.160980 
	C190.436951,216.021683 185.631058,215.279037 180.810043,215.174240 
	C178.048019,215.114166 177.528275,213.870361 177.485718,211.527618 
	C177.329498,202.932068 183.130478,195.660736 191.590393,194.993179 
	C213.009995,193.303024 234.460815,192.011215 255.886459,190.392014 
	C258.864838,190.166931 259.557098,192.205505 260.676208,193.903091 
	C277.887695,220.011017 295.059265,246.145264 312.458893,272.561646 
z"/>
</svg>